<?xml version="1.0" encoding="UTF-8" standalone="no"?>
<svg id="svg2" xmlns:rdf="http://www.w3.org/1999/02/22-rdf-syntax-ns#" xmlns="http://www.w3.org/2000/svg" height="60.663mm" width="84.939mm" version="1.1" xmlns:cc="http://creativecommons.org/ns#" xmlns:dc="http://purl.org/dc/elements/1.1/" viewBox="0 0 300.96668 214.9471">
<g id="layer1" transform="translate(4202.8 945.43)">
<g id="g5297">
<path id="path2294" fill="#0f0" d="m-4009.3-816.48h64.57l-0.054 64.489-64.436 0.0275-0.081-64.516m21.64 21.559-0.081 21.371 21.371 0.08 0.08-21.371-21.371-0.08zm-172.18-21.56h64.57l-0.054 64.489-64.435 0.0275-0.081-64.516m21.64 21.559-0.081 21.371 21.371 0.08 0.081-21.371zm21.479-150.51 128.9 0.0537v21.425l-42.85 0.08v42.823l42.823-0.0275 0.026-42.876 21.505 0.0537 0.1075 42.849 21.371 0.21513 0.2152 21.29 21.29 0.21513 0.2151 21.29 21.317 0.21512-0.026 42.849-21.371-0.0262-0.2151-21.344-21.317-0.13437-0.1613-21.398-64.274 0.1075-0.1344 21.29-21.344 0.16125-0.1881 21.317-42.903-0.0275-0.215-21.317-21.317-0.13437-0.1613-21.398-64.274 0.1075-0.1344 21.29-21.344 0.16125-0.1881 21.344-21.398-0.0538 0.026-42.85 21.344-0.215 0.215-21.29 21.29-0.21513 0.215-21.29 21.317-0.21513 0.1075-42.823h21.478l0.081 42.849 64.328-0.08-0.026-42.742-64.382-0.0275 0.054-21.505z"/>
<path id="path2304" d="m-4009.2-751.96 64.436-0.0275-0.054 21.505-64.382-0.0813v-21.398zm-150.54 0 64.435-0.0275-0.054 21.505-64.382-0.0813v-21.398zm172.1-42.957 21.371 0.08-0.08 21.371-21.371-0.08 0.081-21.371zm-150.54 0 21.371 0.08-0.081 21.371-21.371-0.08 0.081-21.371zm193.47-21.559 21.317 0.13438 0.2151 21.344-0.1075 43.011h-21.478l0.054-64.489zm-85.914 0.16125 21.344-0.16125 0.081 64.516-21.505-0.0537-0.1075-42.984 0.1881-21.317zm-64.624-0.16125 21.317 0.13438 0.215 21.317-0.1075 43.038h-21.478l0.054-64.489zm-85.914 0.16125 21.344-0.16125 0.081 64.516-21.505-0.0537-0.1075-42.957 0.1881-21.344zm172.02-21.452 64.274-0.1075 0.1613 21.398h-64.57l0.1344-21.29zm-150.54 0 64.274-0.1075 0.1613 21.398h-64.57l0.1344-21.29z"/>
</g>
</g>
</svg>
